<svg fill="none" height="24" viewBox="0 0 24 24" width="24" xmlns="http://www.w3.org/2000/svg"><path d="m18.5 9.00002h-2m0 0h-2m2 0v-2.00002m0 2.00002v1.99998" stroke="#1c274c" stroke-linecap="round" stroke-width="1.5"/><path d="m8.96173 19.3786.47259-.5823zm3.03827-13.80448-.5478.51223c.1418.15168.3401.23777.5478.23777s.406-.08609.5478-.23777zm3.0383 13.80458.4726.5823zm-3.0383 1.6213v-.75zm-9.34841-7.3179c.21436.3545.67546.468 1.02989.2537.35443-.2144.46798-.6755.25362-1.0299zm3.88574 2.4886c-.28897-.2968-.76381-.3031-1.06057-.0141-.29676.2889-.30307.7638-.01409 1.0605zm-3.78733-6.8532c0-2.90461 1.26766-4.70019 2.83602-5.31431 1.5649-.61276 3.75437-.17541 5.86618 2.08316l1.0956-1.02446c-2.388-2.55405-5.19856-3.36002-7.5087-2.45544-2.30668.90322-3.7891 3.38564-3.7891 6.71105zm12.7609 10.6435c1.4924-1.2111 3.2805-2.8342 4.7018-4.647 1.4069-1.7944 2.5373-3.8786 2.5373-5.99653h-1.5c0 1.61143-.8793 3.36393-2.2177 5.07093-1.3239 1.6886-3.0167 3.2313-4.4666 4.4079zm7.2391-10.64353c0-3.32539-1.4824-5.80781-3.7891-6.71102-2.3101-.90458-5.1207-.09861-7.5087 2.45544l1.0956 1.02446c2.1118-2.25857 4.3013-2.69593 5.8662-2.08316 1.5683.61411 2.836 2.40968 2.836 5.31428zm-14.26086 10.64353c1.27144 1.0318 2.15316 1.789 3.51086 1.789v-1.5c-.7229 0-1.1731-.3237-2.56568-1.4537zm6.07656-1.1647c-1.3926 1.13-1.8428 1.4537-2.5657 1.4537v1.5c1.3577 0 2.2394-.7572 3.5109-1.789zm-10.6306-5.8904c-.74699-1.2351-1.1851-2.4509-1.1851-3.5884h-1.5c0 1.5122.57646 3.0004 1.40159 4.3646zm5.49922 5.8904c-.91701-.7442-1.93539-1.6381-2.89699-2.6256l-1.07466 1.0464c1.01281 1.0401 2.07729 1.9737 3.02647 2.7439z" fill="#1c274c"/></svg>